# xmcd CD database file
#
# Track frame offsets:
#	150
#	18102
#	34486
#	48789
#	62838
#	81016
#	94814
#	110683
#	123171
#	149172
#
# Disc length: 2169 seconds
#
# Revision: 0
# Processed by: cddbd v1.5.2PL0 Copyright (c) Steve Scherf et al.
# Submitted via: CDex 1.70beta2
#
DISCID=8608770a
DTITLE=Pete Wells Blues Hangover - Greetings From The Aloha Monkey
DYEAR=2005
DGENRE=Blues
TTITLE0=Jimmy Bell
TTITLE1=Thats How Strong My Love Is
TTITLE2=Louise
TTITLE3=I'm Alright
TTITLE4=Tore Down
TTITLE5=Richest Man Alive
TTITLE6=Rambling Blues
TTITLE7=Jesterrman
TTITLE8=Long Legs Tight Skirt
TTITLE9=Ain't No Big Thing
EXTD=YEAR: 2005
EXTT0=
EXTT1=
EXTT2=
EXTT3=
EXTT4=
EXTT5=
EXTT6=
EXTT7=
EXTT8=
EXTT9=
PLAYORDER=
